<svg id="Layer_1" data-name="Layer 1" xmlns="http://www.w3.org/2000/svg" viewBox="0 0 466 104.68">
  <path d="M119.68,95.07,89.75,136.74H61L91.91,95.43,62.32,55.32h29L119.66,95" transform="translate(-61 -55.32)" fill="#27aae1"/>
  <g>
    <path d="M168.61,98a13.65,13.65,0,0,0-2.24-6c-1.74-2.39-4.45-3.58-8.13-3.59q-7.86,0-10.75,7.78a32.29,32.29,0,0,0-1.52,11,29.57,29.57,0,0,0,1.52,10.48Q150.28,125,158,125q5.46,0,7.75-2.94a14.5,14.5,0,0,0,2.78-7.62h15.85a26,26,0,0,1-5.13,13.39Q171.92,138,157.59,138t-21.09-8.49q-6.75-8.5-6.76-22,0-15.26,7.47-23.76t20.6-8.49q11.16,0,18.28,5T184.51,98Z" transform="translate(-61 -55.32)" fill="#fff"/>
    <path d="M211,136H195.45V55.78H211Z" transform="translate(-61 -55.32)" fill="#fff"/>
    <path d="M249.6,99.93a24.38,24.38,0,0,0,6.2-1.36q3.34-1.41,3.34-4.41c0-2.43-.85-4.09-2.56-5s-4.22-1.37-7.53-1.38c-3.72,0-6.35.9-7.89,2.72A11.21,11.21,0,0,0,239,95.9H224a22.6,22.6,0,0,1,4.37-12.79q6.18-7.85,21.21-7.84A37.8,37.8,0,0,1,267,79.14q7.61,3.85,7.6,14.59v27.21q0,2.84.11,6.86a8.74,8.74,0,0,0,.92,4.14,5.54,5.54,0,0,0,2.29,1.8V136H261a16.34,16.34,0,0,1-1-3.37c-.19-1-.33-2.25-.44-3.59a31.65,31.65,0,0,1-7.45,5.93,22.6,22.6,0,0,1-11.39,2.88q-8.1,0-13.38-4.6t-5.29-13q0-11,8.5-15.85,4.66-2.66,13.71-3.81Zm9.49,7.24a16.81,16.81,0,0,1-3,1.5,26,26,0,0,1-4.17,1.06l-3.53.65a23.12,23.12,0,0,0-7.13,2.13,7.1,7.1,0,0,0-3.66,6.58c0,2.65.74,4.57,2.24,5.75a8.48,8.48,0,0,0,5.44,1.77,16.26,16.26,0,0,0,9.37-2.94q4.29-2.94,4.45-10.73Z" transform="translate(-61 -55.32)" fill="#fff"/>
    <path d="M290.45,147.4l2,.11a25.29,25.29,0,0,0,4.35-.16,8.06,8.06,0,0,0,3.49-1.25,8.45,8.45,0,0,0,2.53-3.87c.78-2,1.11-3.16,1-3.59L282,76.69h17.26l12.95,43.76,12.25-43.76H341L320.6,135q-5.91,16.88-9.34,20.94T297.53,160h-3.32c-.83,0-2.09-.08-3.76-.19Z" transform="translate(-61 -55.32)" fill="#fff"/>
    <path d="M400.78,83.82q6.66,8.43,6.66,21.77,0,13.83-6.57,22.92t-18.33,9.09c-4.93,0-8.88-1-11.88-2.94a23.83,23.83,0,0,1-5.8-6.09V136H349.57V55.89h15.51V84.42a22.82,22.82,0,0,1,6.52-6.32,19.46,19.46,0,0,1,10.74-2.72Q394.12,75.38,400.78,83.82Zm-13,36.14q3.35-4.84,3.35-12.73a28.42,28.42,0,0,0-1.65-10.46q-3.12-7.83-11.52-7.84t-11.7,7.68a28.76,28.76,0,0,0-1.64,10.56q0,7.62,3.4,12.63t10.37,5a10.76,10.76,0,0,0,9.42-4.8Z" transform="translate(-61 -55.32)" fill="#27aae1"/>
    <path d="M456.88,77.89a24,24,0,0,1,10.25,8.78,29.1,29.1,0,0,1,4.73,12.26,74.83,74.83,0,0,1,.51,11.78H429.16q.36,8.92,6.2,12.52a15.7,15.7,0,0,0,8.56,2.23,13.11,13.11,0,0,0,8.61-2.72,12.94,12.94,0,0,0,3.19-4.08h15.84q-.62,5.28-5.75,10.72-8,8.66-22.32,8.66a32.38,32.38,0,0,1-20.9-7.3q-9.06-7.31-9.06-23.76,0-15.42,8.18-23.65t21.22-8.22A33.64,33.64,0,0,1,456.88,77.89Zm-23.21,13.4a16.12,16.12,0,0,0-4.13,9.19h26.73c-.29-4.12-1.66-7.25-4.14-9.38a13.56,13.56,0,0,0-9.2-3.2Q437,87.9,433.67,91.29Z" transform="translate(-61 -55.32)" fill="#27aae1"/>
    <path d="M496.06,136H480.55V55.78h15.51Z" transform="translate(-61 -55.32)" fill="#27aae1"/>
    <path d="M527,136H511.52V55.78H527Z" transform="translate(-61 -55.32)" fill="#27aae1"/>
  </g>
</svg>
